<svg width="1024" height="1024" viewBox="0 0 1024 1024" fill="none" xmlns="http://www.w3.org/2000/svg">
  <defs>
    <linearGradient id="bg" x1="142" y1="80" x2="872" y2="944" gradientUnits="userSpaceOnUse">
      <stop stop-color="#111827"/>
      <stop offset="0.56" stop-color="#07111F"/>
      <stop offset="1" stop-color="#020617"/>
    </linearGradient>
    <linearGradient id="frame" x1="196" y1="188" x2="834" y2="852" gradientUnits="userSpaceOnUse">
      <stop stop-color="#22D3EE"/>
      <stop offset="0.42" stop-color="#2F80ED"/>
      <stop offset="1" stop-color="#35D07F"/>
    </linearGradient>
    <linearGradient id="mark" x1="270" y1="244" x2="762" y2="782" gradientUnits="userSpaceOnUse">
      <stop stop-color="#E0F7FF"/>
      <stop offset="0.28" stop-color="#38BDF8"/>
      <stop offset="0.68" stop-color="#22D3EE"/>
      <stop offset="1" stop-color="#4ADE80"/>
    </linearGradient>
    <radialGradient id="glowBlue" cx="0" cy="0" r="1" gradientUnits="userSpaceOnUse" gradientTransform="translate(306 304) rotate(47) scale(574)">
      <stop stop-color="#38BDF8" stop-opacity="0.45"/>
      <stop offset="1" stop-color="#38BDF8" stop-opacity="0"/>
    </radialGradient>
    <radialGradient id="glowGreen" cx="0" cy="0" r="1" gradientUnits="userSpaceOnUse" gradientTransform="translate(748 712) rotate(132) scale(496)">
      <stop stop-color="#4ADE80" stop-opacity="0.36"/>
      <stop offset="1" stop-color="#4ADE80" stop-opacity="0"/>
    </radialGradient>
    <filter id="softShadow" x="40" y="40" width="944" height="944" filterUnits="userSpaceOnUse" color-interpolation-filters="sRGB">
      <feDropShadow dx="0" dy="28" stdDeviation="30" flood-color="#000814" flood-opacity="0.6"/>
      <feDropShadow dx="0" dy="-8" stdDeviation="18" flood-color="#7DD3FC" flood-opacity="0.12"/>
    </filter>
    <filter id="lineGlow" x="154" y="152" width="716" height="724" filterUnits="userSpaceOnUse" color-interpolation-filters="sRGB">
      <feDropShadow dx="0" dy="0" stdDeviation="10" flood-color="#22D3EE" flood-opacity="0.55"/>
      <feDropShadow dx="0" dy="0" stdDeviation="18" flood-color="#4ADE80" flood-opacity="0.2"/>
    </filter>
    <clipPath id="roundClip">
      <rect x="64" y="64" width="896" height="896" rx="210"/>
    </clipPath>
  </defs>

  <rect width="1024" height="1024" fill="#020617"/>
  <g clip-path="url(#roundClip)">
    <rect x="64" y="64" width="896" height="896" rx="210" fill="url(#bg)"/>
    <rect x="64" y="64" width="896" height="896" rx="210" fill="url(#glowBlue)"/>
    <rect x="64" y="64" width="896" height="896" rx="210" fill="url(#glowGreen)"/>
    <path d="M168 732C294 816 498 828 668 752C796 696 872 592 850 492" stroke="#4ADE80" stroke-opacity="0.22" stroke-width="74" stroke-linecap="round"/>
    <path d="M162 714C306 805 520 802 682 714C792 654 856 550 832 456" stroke="url(#frame)" stroke-width="28" stroke-linecap="round"/>
  </g>

  <rect x="64" y="64" width="896" height="896" rx="210" stroke="white" stroke-opacity="0.08" stroke-width="2"/>
  <g filter="url(#softShadow)">
    <path d="M512 164L778 286V498C778 674 672 806 512 860C352 806 246 674 246 498V286L512 164Z" fill="#071827" fill-opacity="0.84"/>
    <path d="M512 196L746 304V500C746 650 658 765 512 816C366 765 278 650 278 500V304L512 196Z" stroke="url(#frame)" stroke-width="30" stroke-linejoin="round"/>
    <path d="M512 196V816" stroke="white" stroke-opacity="0.08" stroke-width="8"/>
  </g>

  <g filter="url(#lineGlow)" stroke="url(#mark)" stroke-linecap="round" stroke-linejoin="round">
    <path d="M362 334V700" stroke-width="64"/>
    <path d="M634 326L462 512L646 700" stroke-width="64"/>
    <path d="M632 400C682 432 710 482 710 542C710 634 638 708 544 708" stroke-width="34"/>
    <path d="M588 456C616 476 632 506 632 542C632 594 592 634 540 634" stroke-width="30"/>
    <path d="M538 506C552 514 560 526 560 542C560 564 544 580 522 580" stroke-width="26"/>
  </g>

  <g filter="url(#lineGlow)">
    <circle cx="718" cy="708" r="58" fill="#0B1724" stroke="url(#frame)" stroke-width="18"/>
    <circle cx="718" cy="708" r="24" fill="#4ADE80"/>
    <circle cx="718" cy="708" r="12" fill="#D9F99D" fill-opacity="0.9"/>
  </g>

  <path d="M194 194C220 154 260 128 306 116" stroke="white" stroke-opacity="0.22" stroke-width="14" stroke-linecap="round"/>
  <path d="M700 134C774 158 836 210 874 278" stroke="#67E8F9" stroke-opacity="0.16" stroke-width="18" stroke-linecap="round"/>
</svg>
